<?xml version="1.0" standalone="no"?><!DOCTYPE svg PUBLIC "-//W3C//DTD SVG 1.1//EN" "http://www.w3.org/Graphics/SVG/1.1/DTD/svg11.dtd"><svg t="1539681650302" class="icon" style="" viewBox="0 0 1024 1024" version="1.1" xmlns="http://www.w3.org/2000/svg" p-id="1102" xmlns:xlink="http://www.w3.org/1999/xlink" width="200" height="200"><defs><style type="text/css"></style></defs><path d="M877.946 198.7H146.054c-9.088 0-16.46 7.37-16.46 16.461V808.84c0 9.09 7.372 16.46 16.46 16.46h731.892c9.09 0 16.46-7.368 16.46-16.46V215.16c0-9.09-7.37-16.46-16.46-16.46zM172.1 234.89h679.245c4.543 0 8.232 3.688 8.232 8.225v460.14L655.904 503.942c-6.423-6.433-16.85-6.433-23.273 0l-73.966 73.954-142.827-142.83c-6.43-6.43-16.85-6.43-23.28 0l-228.686 228.69V243.113a8.228 8.228 0 0 1 8.229-8.225z m679.245 557.489H172.1a8.224 8.224 0 0 1-8.229-8.226v-73.841L404.2 469.987l241.855 241.851a16.398 16.398 0 0 0 11.638 4.823c4.213 0 8.427-1.607 11.638-4.823 6.43-6.423 6.43-16.85 0-23.283l-87.383-87.38 62.318-62.318 215.312 210.966v34.33c0 4.544-3.688 8.225-8.232 8.225zM707.079 463.16c45.454 0 82.3-36.85 82.3-82.3 0-45.455-36.846-82.304-82.3-82.304s-82.303 36.849-82.303 82.303c0 45.45 36.849 82.3 82.303 82.3z m0-131.682c27.23 0 49.382 22.146 49.382 49.381 0 27.23-22.153 49.382-49.382 49.382s-49.386-22.153-49.386-49.382c0-27.236 22.157-49.381 49.386-49.381z" fill="#C0C0C0" p-id="1103"></path></svg>